<?xml version="1.0" encoding="UTF-8" standalone="no"?>
<!-- Created with Inkscape (http://www.inkscape.org/) -->

<svg
   xmlns:dc="http://purl.org/dc/elements/1.1/"
   xmlns:cc="http://creativecommons.org/ns#"
   xmlns:rdf="http://www.w3.org/1999/02/22-rdf-syntax-ns#"
   xmlns:svg="http://www.w3.org/2000/svg"
   xmlns="http://www.w3.org/2000/svg"
   xmlns:sodipodi="http://sodipodi.sourceforge.net/DTD/sodipodi-0.dtd"
   xmlns:inkscape="http://www.inkscape.org/namespaces/inkscape"
   width="990mm"
   height="510.27283mm"
   viewBox="0 0 990 510.27283"
   version="1.1"
   id="svg8"
   inkscape:version="0.92.3 (2405546, 2018-03-11)"
   sodipodi:docname="man-of-law-puzzle.svg">
  <defs
     id="defs2" />
  <sodipodi:namedview
     id="base"
     pagecolor="#ffffff"
     bordercolor="#666666"
     borderopacity="1.0"
     inkscape:pageopacity="0.0"
     inkscape:pageshadow="2"
     inkscape:zoom="0.1647644"
     inkscape:cx="2673.3136"
     inkscape:cy="-179.15938"
     inkscape:document-units="mm"
     inkscape:current-layer="layer1"
     showgrid="false"
     inkscape:snap-midpoints="true"
     inkscape:snap-intersection-paths="false"
     inkscape:snap-others="true"
     inkscape:snap-object-midpoints="true"
     inkscape:window-width="1538"
     inkscape:window-height="1151"
     inkscape:window-x="2182"
     inkscape:window-y="145"
     inkscape:window-maximized="0"
     fit-margin-top="0"
     fit-margin-left="0"
     fit-margin-right="0"
     fit-margin-bottom="0" />
  <metadata
     id="metadata5">
    <rdf:RDF>
      <cc:Work
         rdf:about="">
        <dc:format>image/svg+xml</dc:format>
        <dc:type
           rdf:resource="http://purl.org/dc/dcmitype/StillImage" />
        <dc:title></dc:title>
      </cc:Work>
    </rdf:RDF>
  </metadata>
  <g
     inkscape:label="Layer 1"
     inkscape:groupmode="layer"
     id="layer1"
     transform="translate(0,58.975176)">
    <path
       style="fill:#b3b3b3;fill-opacity:1;fill-rule:evenodd;stroke:#b3b3b3;stroke-width:40;stroke-linecap:butt;stroke-linejoin:miter;stroke-miterlimit:4;stroke-dasharray:none;stroke-opacity:1"
       d="M 741.38376,251.2269 H 941.79623"
       id="path1047"
       inkscape:connector-curvature="0" />
    <path
       inkscape:connector-curvature="0"
       id="path1045"
       d="M 397.42521,251.2269 H 597.83768"
       style="fill:#b3b3b3;fill-opacity:1;fill-rule:evenodd;stroke:#b3b3b3;stroke-width:40;stroke-linecap:butt;stroke-linejoin:miter;stroke-miterlimit:4;stroke-dasharray:none;stroke-opacity:1" />
    <path
       style="fill:#b3b3b3;fill-opacity:1;fill-rule:evenodd;stroke:#b3b3b3;stroke-width:40;stroke-linecap:butt;stroke-linejoin:miter;stroke-miterlimit:4;stroke-dasharray:none;stroke-opacity:1"
       d="M 44.999999,251.2269 H 245.41244"
       id="path1043"
       inkscape:connector-curvature="0" />
    <path
       style="opacity:1;fill:#b3b3b3;fill-opacity:1;fill-rule:evenodd;stroke:none;stroke-width:0.96755898;stroke-linecap:square;stroke-linejoin:bevel;stroke-miterlimit:4;stroke-dasharray:none;stroke-dashoffset:0;stroke-opacity:1"
       d="m 881.46484,408.25586 c -82.14342,0.64139 -163.9615,30.65595 -230.58203,88.22852 -85.04165,73.49183 -139.16405,179.24736 -158.03906,295.29687 A 170.07874,170.07874 0 0 0 377.95312,952.44141 170.07874,170.07874 0 0 0 548.03125,1122.5195 170.07874,170.07874 0 0 0 718.10938,952.44141 170.07874,170.07874 0 0 0 643.44336,811.6875 c 15.03602,-82.5927 53.86946,-155.52026 106.29102,-200.82227 74.54917,-64.42439 158.03107,-71.14412 236.72265,-21.83398 78.67437,49.29933 137.89977,153.25711 142.03517,318.52734 -11.1837,196.61631 46.5054,362.79871 163.5976,463.98831 118.4366,102.3512 284.9032,117.617 415.8438,35.5664 99.654,-62.4457 167.8582,-167.3407 197.2422,-288.2813 A 170.07874,170.07874 0 0 0 2040.9453,952.44141 170.07874,170.07874 0 0 0 1981.5,823.34961 c 13.3844,-87.36457 53.363,-165.06192 108.2383,-212.48438 74.5492,-64.42439 158.0252,-71.14412 236.7168,-21.83398 78.6744,49.29933 137.9056,153.25711 142.041,318.52734 -11.1837,196.61631 46.4976,362.79871 163.5898,463.98831 118.4365,102.3512 284.9032,117.617 415.8438,35.5664 100.9928,-63.2846 169.6863,-170.1666 198.4062,-293.1641 a 170.07874,170.07874 0 0 0 117.4434,-161.50779 170.07874,170.07874 0 0 0 -170.0781,-170.08008 170.07874,170.07874 0 0 0 -170.0801,170.08008 170.07874,170.07874 0 0 0 72.084,138.87889 c -22.7779,83.2431 -70.2445,151.4605 -128.0449,187.6797 -78.6917,49.3101 -162.1735,42.5904 -236.7227,-21.834 -74.5492,-64.4244 -122.1548,-180.9358 -111.4375,-346.49998 l 0.1328,-6.76172 c -4.9987,-200.97064 -81.9598,-360.92789 -212.9004,-442.97852 -57.2865,-35.89712 -121.3743,-53.16878 -185.2636,-52.66992 -82.1435,0.64139 -163.9596,30.65595 -230.5801,88.22852 -83.7957,72.41509 -137.5681,176.15766 -157.1856,290.20507 a 170.07874,170.07874 0 0 0 -132.916,165.75196 170.07874,170.07874 0 0 0 57.8301,127.58399 c -21.4572,88.3503 -70.5695,161.1306 -130.9629,198.9746 -78.6916,49.3101 -162.1656,42.5904 -236.7148,-21.834 -74.5492,-64.4244 -122.153,-180.9358 -111.4356,-346.49998 l 0.1309,-6.76172 C 1274.6362,702.93366 1197.6672,542.97641 1066.7266,460.92578 1009.4401,425.02866 945.3542,407.757 881.46484,408.25586 Z"
       transform="scale(0.26458333)"
       id="path817"
       inkscape:connector-curvature="0" />
    <path
       style="opacity:1;fill:#b3b3b3;fill-opacity:1;fill-rule:evenodd;stroke:none;stroke-width:0.96755898;stroke-linecap:square;stroke-linejoin:bevel;stroke-miterlimit:4;stroke-dasharray:none;stroke-dashoffset:0;stroke-opacity:1"
       d="M 840.76758,126.06836 C 447.05855,124.0297 120.13647,423.71879 80.525391,807.98242 A 170.07874,170.07874 0 0 0 0,952.44141 170.07874,170.07874 0 0 0 170.07812,1122.5195 170.07874,170.07874 0 0 0 340.1582,952.44141 170.07874,170.07874 0 0 0 234.42969,795.10156 c 44.07963,-295.2159 298.35071,-519.44424 605.55469,-517.85351 292.79572,1.51611 535.37722,207.66374 593.00392,482.97461 -1.9554,11.64649 -3.645,23.38213 -5.0625,35.20117 A 170.07874,170.07874 0 0 0 1322.834,952.44141 170.07874,170.07874 0 0 0 1492.9141,1122.5195 170.07874,170.07874 0 0 0 1662.9922,952.44141 170.07874,170.07874 0 0 0 1593.9121,815.8418 c -1.7351,-18.73734 -4.151,-37.2807 -7.2285,-55.60547 58.1391,-277.82144 304.312,-484.51576 599.3008,-482.98828 301.7027,1.56223 550.0966,220.39203 597.7519,508.28515 A 170.07874,170.07874 0 0 0 2645.6699,952.44141 170.07874,170.07874 0 0 0 2815.748,1122.5195 170.07874,170.07874 0 0 0 2985.8262,952.44141 170.07874,170.07874 0 0 0 2941.6699,838.40234 C 2916.883,443.09415 2588.1502,128.14675 2186.7676,126.06836 1893.9195,124.55197 1638.0218,289.97355 1509.8242,532.96289 1382.9251,292.44732 1130.815,127.57024 840.76758,126.06836 Z"
       transform="scale(0.26458333)"
       id="circle867"
       inkscape:connector-curvature="0" />
    <path
       style="opacity:1;fill:#b3b3b3;fill-opacity:1;fill-rule:evenodd;stroke:none;stroke-width:0.96755898;stroke-linecap:square;stroke-linejoin:bevel;stroke-miterlimit:4;stroke-dasharray:none;stroke-dashoffset:0;stroke-opacity:1"
       d="m 925.98438,782.36133 a 170.07874,170.07874 0 0 0 -170.07813,170.08008 170.07874,170.07874 0 0 0 77.22461,142.32029 c 69.99255,349.5464 380.39564,612.8312 749.50194,610.9199 290.0508,-1.5019 542.1649,-166.3821 669.0625,-406.9023 128.1966,242.9925 384.093,408.4187 676.9434,406.9023 368.0321,-1.9057 674.9823,-266.8498 742.5586,-615.5957 a 170.07874,170.07874 0 0 0 70.5351,-137.64449 170.07874,170.07874 0 0 0 -170.0801,-170.08008 170.07874,170.07874 0 0 0 -170.0781,170.08008 170.07874,170.07874 0 0 0 109.5879,158.74809 c -71.6367,255.2163 -304.7485,441.8681 -583.3047,443.3105 -285.2231,1.4769 -524.809,-191.7096 -592.914,-455.6348 a 170.07874,170.07874 0 0 0 83.955,-146.42379 170.07874,170.07874 0 0 0 -170.08,-170.08008 170.07874,170.07874 0 0 0 -170.0782,170.08008 170.07874,170.07874 0 0 0 88.9395,149.45119 c -68.5308,259.9673 -303.9029,451.1476 -585.8301,452.6074 -281.5088,1.4577 -518.5626,-186.7104 -590.16796,-445.3594 A 170.07874,170.07874 0 0 0 1096.0625,952.44141 170.07874,170.07874 0 0 0 925.98438,782.36133 Z"
       transform="scale(0.26458333)"
       id="circle869"
       inkscape:connector-curvature="0" />
    <path
       style="opacity:1;fill:#ffff00;fill-opacity:1;fill-rule:evenodd;stroke:none;stroke-width:40;stroke-linecap:square;stroke-linejoin:bevel;stroke-miterlimit:4;stroke-dasharray:none;stroke-dashoffset:0;stroke-opacity:1"
       d="m 881.49888,251.2269 a 35.307358,35.307358 0 0 1 -35.30735,35.30736 35.307358,35.307358 0 0 1 -35.30736,-35.30736 35.307358,35.307358 0 0 1 35.30736,-35.30736 35.307358,35.307358 0 0 1 35.30735,35.30736 z"
       id="path961"
       inkscape:connector-curvature="0" />
    <path
       id="path964"
       d="m 780.49889,251.2269 a 35.307358,35.307358 0 0 1 -35.30736,35.30736 35.307358,35.307358 0 0 1 -35.30736,-35.30736 35.307358,35.307358 0 0 1 35.30736,-35.30736 35.307358,35.307358 0 0 1 35.30736,35.30736 z"
       style="opacity:1;fill:#ffff00;fill-opacity:1;fill-rule:evenodd;stroke:none;stroke-width:40;stroke-linecap:square;stroke-linejoin:bevel;stroke-miterlimit:4;stroke-dasharray:none;stroke-dashoffset:0;stroke-opacity:1"
       inkscape:connector-curvature="0" />
    <path
       style="opacity:1;fill:#ffff00;fill-opacity:1;fill-rule:evenodd;stroke:none;stroke-width:40;stroke-linecap:square;stroke-linejoin:bevel;stroke-miterlimit:4;stroke-dasharray:none;stroke-dashoffset:0;stroke-opacity:1"
       d="m 630.28643,251.2269 a 35.307358,35.307358 0 0 1 -35.30736,35.30736 35.307358,35.307358 0 0 1 -35.30736,-35.30736 35.307358,35.307358 0 0 1 35.30736,-35.30736 35.307358,35.307358 0 0 1 35.30736,35.30736 z"
       id="path966"
       inkscape:connector-curvature="0" />
    <path
       id="path968"
       d="m 530.87391,251.2269 a 35.307358,35.307358 0 0 1 -35.30736,35.30736 35.307358,35.307358 0 0 1 -35.30735,-35.30736 35.307358,35.307358 0 0 1 35.30735,-35.30736 35.307358,35.307358 0 0 1 35.30736,35.30736 z"
       style="opacity:1;fill:#ffff00;fill-opacity:1;fill-rule:evenodd;stroke:none;stroke-width:40;stroke-linecap:square;stroke-linejoin:bevel;stroke-miterlimit:4;stroke-dasharray:none;stroke-dashoffset:0;stroke-opacity:1"
       inkscape:connector-curvature="0" />
    <path
       style="opacity:1;fill:#ffff00;fill-opacity:1;fill-rule:evenodd;stroke:none;stroke-width:40;stroke-linecap:square;stroke-linejoin:bevel;stroke-miterlimit:4;stroke-dasharray:none;stroke-dashoffset:0;stroke-opacity:1"
       d="m 430.40312,251.2269 a 35.307358,35.307358 0 0 1 -35.30735,35.30736 35.307358,35.307358 0 0 1 -35.30736,-35.30736 35.307358,35.307358 0 0 1 35.30736,-35.30736 35.307358,35.307358 0 0 1 35.30735,35.30736 z"
       id="path970"
       inkscape:connector-curvature="0" />
    <path
       id="path972"
       d="m 280.7198,251.2269 a 35.307358,35.307358 0 0 1 -35.30736,35.30736 35.307358,35.307358 0 0 1 -35.30736,-35.30736 35.307358,35.307358 0 0 1 35.30736,-35.30736 35.307358,35.307358 0 0 1 35.30736,35.30736 z"
       style="opacity:1;fill:#ffff00;fill-opacity:1;fill-rule:evenodd;stroke:none;stroke-width:40;stroke-linecap:square;stroke-linejoin:bevel;stroke-miterlimit:4;stroke-dasharray:none;stroke-dashoffset:0;stroke-opacity:1"
       inkscape:connector-curvature="0" />
    <path
       style="opacity:1;fill:#ffff00;fill-opacity:1;fill-rule:evenodd;stroke:none;stroke-width:40;stroke-linecap:square;stroke-linejoin:bevel;stroke-miterlimit:4;stroke-dasharray:none;stroke-dashoffset:0;stroke-opacity:1"
       d="m 180.24892,251.2269 a 35.307358,35.307358 0 0 1 -35.30736,35.30736 35.307358,35.307358 0 0 1 -35.30736,-35.30736 35.307358,35.307358 0 0 1 35.30736,-35.30736 35.307358,35.307358 0 0 1 35.30736,35.30736 z"
       id="path974"
       inkscape:connector-curvature="0" />
    <path
       id="path976"
       d="M 80.307358,251.2269 A 35.307358,35.307358 0 0 1 45,286.53426 35.307358,35.307358 0 0 1 9.6926422,251.2269 35.307358,35.307358 0 0 1 45,215.91954 35.307358,35.307358 0 0 1 80.307358,251.2269 Z"
       style="opacity:1;fill:#ffff00;fill-opacity:1;fill-rule:evenodd;stroke:none;stroke-width:40;stroke-linecap:square;stroke-linejoin:bevel;stroke-miterlimit:4;stroke-dasharray:none;stroke-dashoffset:0;stroke-opacity:1"
       inkscape:connector-curvature="0" />
    <path
       style="opacity:1;fill:#ffff00;fill-opacity:1;fill-rule:evenodd;stroke:none;stroke-width:40;stroke-linecap:square;stroke-linejoin:bevel;stroke-miterlimit:4;stroke-dasharray:none;stroke-dashoffset:0;stroke-opacity:1"
       d="m 981.44044,251.2269 a 35.307358,35.307358 0 0 1 -35.30736,35.30736 35.307358,35.307358 0 0 1 -35.30736,-35.30736 35.307358,35.307358 0 0 1 35.30736,-35.30736 35.307358,35.307358 0 0 1 35.30736,35.30736 z"
       id="path978"
       inkscape:connector-curvature="0" />
    <text
       xml:space="preserve"
       style="font-style:normal;font-variant:normal;font-weight:normal;font-stretch:normal;font-size:4.23333311px;line-height:100%;font-family:Arial;-inkscape-font-specification:'Arial, Normal';font-variant-ligatures:normal;font-variant-caps:normal;font-variant-numeric:normal;text-align:start;letter-spacing:0.17462501px;word-spacing:0px;writing-mode:lr-tb;text-anchor:start;fill:#000000;fill-opacity:1;stroke:none;stroke-width:0.26458332px;stroke-linecap:butt;stroke-linejoin:miter;stroke-opacity:1"
       x="26.026201"
       y="269.0069"
       id="text982"><tspan
         sodipodi:role="line"
         id="tspan980"
         x="26.026201"
         y="269.0069"
         style="font-style:normal;font-variant:normal;font-weight:normal;font-stretch:normal;font-size:50.79999924px;font-family:'BP Diet';-inkscape-font-specification:'BP Diet';stroke-width:0.26458332px">7</tspan></text>
    <text
       id="text986"
       y="268.72751"
       x="125.58676"
       style="font-style:normal;font-variant:normal;font-weight:normal;font-stretch:normal;font-size:4.23333311px;line-height:100%;font-family:Arial;-inkscape-font-specification:'Arial, Normal';font-variant-ligatures:normal;font-variant-caps:normal;font-variant-numeric:normal;text-align:start;letter-spacing:0.17462501px;word-spacing:0px;writing-mode:lr-tb;text-anchor:start;fill:#000000;fill-opacity:1;stroke:none;stroke-width:0.26458332px;stroke-linecap:butt;stroke-linejoin:miter;stroke-opacity:1"
       xml:space="preserve"><tspan
         style="font-style:normal;font-variant:normal;font-weight:normal;font-stretch:normal;font-size:50.79999924px;font-family:'BP Diet';-inkscape-font-specification:'BP Diet';stroke-width:0.26458332px"
         y="268.72751"
         x="125.58676"
         id="tspan984"
         sodipodi:role="line">5</tspan></text>
    <text
       xml:space="preserve"
       style="font-style:normal;font-variant:normal;font-weight:normal;font-stretch:normal;font-size:4.23333311px;line-height:100%;font-family:Arial;-inkscape-font-specification:'Arial, Normal';font-variant-ligatures:normal;font-variant-caps:normal;font-variant-numeric:normal;text-align:start;letter-spacing:0.17462501px;word-spacing:0px;writing-mode:lr-tb;text-anchor:start;fill:#000000;fill-opacity:1;stroke:none;stroke-width:0.26458332px;stroke-linecap:butt;stroke-linejoin:miter;stroke-opacity:1"
       x="226.23544"
       y="269.26089"
       id="text990"><tspan
         sodipodi:role="line"
         x="226.23544"
         y="269.26089"
         style="font-style:normal;font-variant:normal;font-weight:normal;font-stretch:normal;font-size:50.79999924px;font-family:'BP Diet';-inkscape-font-specification:'BP Diet';stroke-width:0.26458332px"
         id="tspan1016">6</tspan></text>
    <text
       id="text994"
       y="269.03229"
       x="376.35056"
       style="font-style:normal;font-variant:normal;font-weight:normal;font-stretch:normal;font-size:4.23333311px;line-height:100%;font-family:Arial;-inkscape-font-specification:'Arial, Normal';font-variant-ligatures:normal;font-variant-caps:normal;font-variant-numeric:normal;text-align:start;letter-spacing:0.17462501px;word-spacing:0px;writing-mode:lr-tb;text-anchor:start;fill:#000000;fill-opacity:1;stroke:none;stroke-width:0.26458332px;stroke-linecap:butt;stroke-linejoin:miter;stroke-opacity:1"
       xml:space="preserve"><tspan
         style="font-style:normal;font-variant:normal;font-weight:normal;font-stretch:normal;font-size:50.79999924px;font-family:'BP Diet';-inkscape-font-specification:'BP Diet';stroke-width:0.26458332px"
         y="269.03229"
         x="376.35056"
         id="tspan992"
         sodipodi:role="line">8</tspan></text>
    <text
       xml:space="preserve"
       style="font-style:normal;font-variant:normal;font-weight:normal;font-stretch:normal;font-size:4.23333311px;line-height:100%;font-family:Arial;-inkscape-font-specification:'Arial, Normal';font-variant-ligatures:normal;font-variant-caps:normal;font-variant-numeric:normal;text-align:start;letter-spacing:0.17462501px;word-spacing:0px;writing-mode:lr-tb;text-anchor:start;fill:#000000;fill-opacity:1;stroke:none;stroke-width:0.26458332px;stroke-linecap:butt;stroke-linejoin:miter;stroke-opacity:1"
       x="476.11017"
       y="269.31171"
       id="text998"><tspan
         sodipodi:role="line"
         id="tspan996"
         x="476.11017"
         y="269.31171"
         style="font-style:normal;font-variant:normal;font-weight:normal;font-stretch:normal;font-size:50.79999924px;font-family:'BP Diet';-inkscape-font-specification:'BP Diet';stroke-width:0.26458332px">2</tspan></text>
    <text
       id="text1002"
       y="269.18469"
       x="582.83789"
       style="font-style:normal;font-variant:normal;font-weight:normal;font-stretch:normal;font-size:4.23333311px;line-height:100%;font-family:Arial;-inkscape-font-specification:'Arial, Normal';font-variant-ligatures:normal;font-variant-caps:normal;font-variant-numeric:normal;text-align:start;letter-spacing:0.17462501px;word-spacing:0px;writing-mode:lr-tb;text-anchor:start;fill:#000000;fill-opacity:1;stroke:none;stroke-width:0.26458332px;stroke-linecap:butt;stroke-linejoin:miter;stroke-opacity:1"
       xml:space="preserve"><tspan
         style="font-style:normal;font-variant:normal;font-weight:normal;font-stretch:normal;font-size:50.79999924px;font-family:'BP Diet';-inkscape-font-specification:'BP Diet';stroke-width:0.26458332px"
         y="269.18469"
         x="582.83789"
         id="tspan1000"
         sodipodi:role="line">1</tspan></text>
    <text
       xml:space="preserve"
       style="font-style:normal;font-variant:normal;font-weight:normal;font-stretch:normal;font-size:4.23333311px;line-height:100%;font-family:Arial;-inkscape-font-specification:'Arial, Normal';font-variant-ligatures:normal;font-variant-caps:normal;font-variant-numeric:normal;text-align:start;letter-spacing:0.17462501px;word-spacing:0px;writing-mode:lr-tb;text-anchor:start;fill:#000000;fill-opacity:1;stroke:none;stroke-width:0.26458332px;stroke-linecap:butt;stroke-linejoin:miter;stroke-opacity:1"
       x="725.5827"
       y="269.05771"
       id="text1006"><tspan
         sodipodi:role="line"
         id="tspan1004"
         x="725.5827"
         y="269.05771"
         style="font-style:normal;font-variant:normal;font-weight:normal;font-stretch:normal;font-size:50.79999924px;font-family:'BP Diet';-inkscape-font-specification:'BP Diet';stroke-width:0.26458332px">4</tspan></text>
    <text
       id="text1010"
       y="269.05771"
       x="829.45294"
       style="font-style:normal;font-variant:normal;font-weight:normal;font-stretch:normal;font-size:4.23333311px;line-height:100%;font-family:Arial;-inkscape-font-specification:'Arial, Normal';font-variant-ligatures:normal;font-variant-caps:normal;font-variant-numeric:normal;text-align:start;letter-spacing:0.17462501px;word-spacing:0px;writing-mode:lr-tb;text-anchor:start;fill:#000000;fill-opacity:1;stroke:none;stroke-width:0.26458332px;stroke-linecap:butt;stroke-linejoin:miter;stroke-opacity:1"
       xml:space="preserve"><tspan
         style="font-style:normal;font-variant:normal;font-weight:normal;font-stretch:normal;font-size:50.79999924px;font-family:'BP Diet';-inkscape-font-specification:'BP Diet';stroke-width:0.26458332px"
         y="269.05771"
         x="829.45294"
         id="tspan1008"
         sodipodi:role="line">3</tspan></text>
    <text
       xml:space="preserve"
       style="font-style:normal;font-variant:normal;font-weight:normal;font-stretch:normal;font-size:4.23333311px;line-height:100%;font-family:Arial;-inkscape-font-specification:'Arial, Normal';font-variant-ligatures:normal;font-variant-caps:normal;font-variant-numeric:normal;text-align:start;letter-spacing:0.17462501px;word-spacing:0px;writing-mode:lr-tb;text-anchor:start;fill:#000000;fill-opacity:1;stroke:none;stroke-width:0.26458332px;stroke-linecap:butt;stroke-linejoin:miter;stroke-opacity:1"
       x="9.6349697"
       y="-46.647247"
       id="text1041"><tspan
         sodipodi:role="line"
         id="tspan1039"
         x="9.6349697"
         y="-46.647247"
         style="font-size:16.93333244px;line-height:100%;stroke-width:0.26458332px">Move one at a time so they are in the order 1-8. Solution: 1, 2, 3, 1, 2, 6, 5, 3, 1, 2, 6, 5, 3, 1, 2, 4, 8, 7, 1, 2, 4, 8, 7, 4, 5, 6.</tspan><tspan
         sodipodi:role="line"
         x="9.6349697"
         y="-29.713915"
         style="font-size:16.93333244px;line-height:100%;stroke-width:0.26458332px"
         id="tspan1049">Replace numbers with letters: CHILDREN</tspan></text>
  </g>
</svg>
